<svg xmlns="http://www.w3.org/2000/svg" xmlns:xlink="http://www.w3.org/1999/xlink" version="1.1" width="256" height="256" viewBox="0 0 256 256" xml:space="preserve">

<defs>
</defs>
<g style="stroke: none; stroke-width: 0; stroke-dasharray: none; stroke-linecap: butt; stroke-linejoin: miter; stroke-miterlimit: 10; fill: none; fill-rule: nonzero; opacity: 1;" transform="translate(18.12918287937744 18.12918287937741) scale(2.43 2.43)" >
	<path d="M 82.939 32.54 c -2.685 0 -5.092 -1.544 -6.326 -3.929 c -0.246 -0.475 -0.504 -0.948 -0.774 -1.416 c -0.27 -0.468 -0.55 -0.928 -0.839 -1.378 c -1.448 -2.26 -1.582 -5.118 -0.24 -7.443 c 1.95 -3.377 0.793 -7.695 -2.584 -9.645 l -9.353 -5.4 c -3.377 -1.95 -7.695 -0.793 -9.645 2.584 l -0.002 0.003 c -1.323 2.291 -3.814 3.641 -6.456 3.512 c -1.148 -0.056 -2.301 -0.056 -3.455 0 c -2.637 0.128 -5.123 -1.226 -6.443 -3.513 l -0.001 -0.002 c -1.95 -3.377 -6.268 -4.534 -9.645 -2.584 l -9.353 5.4 c -3.377 1.95 -4.534 6.268 -2.584 9.645 l 0.001 0.002 c 1.32 2.286 1.25 5.116 -0.179 7.336 c -0.625 0.971 -1.202 1.97 -1.727 2.992 c -1.209 2.353 -3.624 3.835 -6.27 3.835 H 7.061 C 3.161 32.539 0 35.701 0 39.6 V 50.4 c 0 3.9 3.161 7.061 7.061 7.061 l 0 0 c 2.685 0 5.092 1.544 6.326 3.929 c 0.246 0.475 0.504 0.947 0.774 1.416 c 0.27 0.468 0.55 0.928 0.839 1.378 c 1.448 2.26 1.582 5.118 0.24 7.442 c -1.95 3.377 -0.793 7.696 2.584 9.645 l 9.353 5.4 c 3.377 1.95 7.695 0.793 9.645 -2.584 l 0.002 -0.003 c 1.323 -2.291 3.814 -3.641 6.456 -3.512 c 1.148 0.056 2.301 0.057 3.455 0.001 c 2.637 -0.128 5.123 1.226 6.443 3.513 l 0.001 0.002 c 1.95 3.377 6.268 4.534 9.645 2.584 l 9.353 -5.4 c 3.377 -1.95 4.534 -6.268 2.584 -9.645 l -0.001 -0.002 c -1.32 -2.286 -1.25 -5.116 0.179 -7.336 c 0.625 -0.971 1.201 -1.97 1.727 -2.992 c 1.209 -2.353 3.624 -3.835 6.27 -3.835 h 0.004 c 3.9 0 7.061 -3.161 7.061 -7.061 V 39.6 C 90 35.701 86.839 32.54 82.939 32.54 z" style="stroke: none; stroke-width: 1; stroke-dasharray: none; stroke-linecap: butt; stroke-linejoin: miter; stroke-miterlimit: 10; fill: rgb(243,244,245); fill-rule: nonzero; opacity: 1;" transform=" matrix(1 0 0 1 0 0) " stroke-linecap="round" />
	<ellipse cx="45.004000000000005" cy="45.004000000000005" rx="25.564" ry="25.564" style="stroke: none; stroke-width: 1; stroke-dasharray: none; stroke-linecap: butt; stroke-linejoin: miter; stroke-miterlimit: 10; fill: rgb(255,105,86); fill-rule: nonzero; opacity: 1;" transform=" matrix(0.7607 -0.6491 0.6491 0.7607 -18.441 39.976) "/>
	<path d="M 38.564 54.182 c -0.552 0 -1 -0.447 -1 -1 V 40.346 c 0 -1.394 -1.134 -2.528 -2.528 -2.528 h -2.078 c -1.394 0 -2.528 1.134 -2.528 2.528 v 12.835 c 0 0.553 -0.448 1 -1 1 s -1 -0.447 -1 -1 V 40.346 c 0 -2.497 2.031 -4.528 4.528 -4.528 h 2.078 c 2.497 0 4.528 2.031 4.528 4.528 v 12.835 C 39.564 53.734 39.116 54.182 38.564 54.182 z" style="stroke: none; stroke-width: 1; stroke-dasharray: none; stroke-linecap: butt; stroke-linejoin: miter; stroke-miterlimit: 10; fill: rgb(243,244,245); fill-rule: nonzero; opacity: 1;" transform=" matrix(1 0 0 1 0 0) " stroke-linecap="round" />
	<path d="M 38.564 46 H 29.43 c -0.552 0 -1 -0.448 -1 -1 s 0.448 -1 1 -1 h 9.134 c 0.552 0 1 0.448 1 1 S 39.116 46 38.564 46 z" style="stroke: none; stroke-width: 1; stroke-dasharray: none; stroke-linecap: butt; stroke-linejoin: miter; stroke-miterlimit: 10; fill: rgb(243,244,245); fill-rule: nonzero; opacity: 1;" transform=" matrix(1 0 0 1 0 0) " stroke-linecap="round" />
	<path d="M 51.093 46 h -5.633 c -0.552 0 -1 -0.448 -1 -1 v -8.182 c 0 -0.552 0.448 -1 1 -1 h 5.633 c 2.276 0 4.128 1.852 4.128 4.128 v 1.925 C 55.221 44.148 53.369 46 51.093 46 z M 46.46 44 h 4.633 c 1.174 0 2.128 -0.955 2.128 -2.128 v -1.925 c 0 -1.174 -0.954 -2.128 -2.128 -2.128 H 46.46 V 44 z" style="stroke: none; stroke-width: 1; stroke-dasharray: none; stroke-linecap: butt; stroke-linejoin: miter; stroke-miterlimit: 10; fill: rgb(243,244,245); fill-rule: nonzero; opacity: 1;" transform=" matrix(1 0 0 1 0 0) " stroke-linecap="round" />
	<path d="M 45.459 54.182 c -0.552 0 -1 -0.447 -1 -1 V 45 c 0 -0.552 0.448 -1 1 -1 s 1 0.448 1 1 v 8.182 C 46.459 53.734 46.012 54.182 45.459 54.182 z" style="stroke: none; stroke-width: 1; stroke-dasharray: none; stroke-linecap: butt; stroke-linejoin: miter; stroke-miterlimit: 10; fill: rgb(243,244,245); fill-rule: nonzero; opacity: 1;" transform=" matrix(1 0 0 1 0 0) " stroke-linecap="round" />
	<path d="M 60.57 54.182 c -0.553 0 -1 -0.447 -1 -1 V 36.818 c 0 -0.552 0.447 -1 1 -1 s 1 0.448 1 1 v 16.363 C 61.57 53.734 61.123 54.182 60.57 54.182 z" style="stroke: none; stroke-width: 1; stroke-dasharray: none; stroke-linecap: butt; stroke-linejoin: miter; stroke-miterlimit: 10; fill: rgb(243,244,245); fill-rule: nonzero; opacity: 1;" transform=" matrix(1 0 0 1 0 0) " stroke-linecap="round" />
</g>
</svg>